<?xml version="1.0" standalone="no"?>
<!DOCTYPE svg PUBLIC "-//W3C//DTD SVG 20010904//EN"
 "http://www.w3.org/TR/2001/REC-SVG-20010904/DTD/svg10.dtd">
<svg version="1.0" xmlns="http://www.w3.org/2000/svg"
 width="944.000000pt" height="944.000000pt" viewBox="0 0 944.000000 944.000000"
 preserveAspectRatio="xMidYMid meet">
<metadata>
Created by potrace 1.14, written by Peter Selinger 2001-2017
</metadata>
<g transform="translate(0.000000,944.000000) scale(0.100000,-0.100000)"
fill="#000000" stroke="none">
<path d="M4270 9428 c-36 -4 -81 -9 -100 -12 -19 -3 -50 -5 -68 -6 -18 0 -31
-3 -28 -8 2 -4 -14 -6 -36 -4 -22 3 -38 0 -35 -4 3 -5 -9 -9 -26 -8 -16 0 -56
-5 -88 -11 -32 -7 -61 -10 -64 -7 -3 3 -5 1 -5 -5 0 -6 -9 -9 -20 -6 -11 3
-20 1 -20 -3 0 -5 -12 -9 -27 -10 -41 0 -106 -13 -113 -22 -3 -4 -13 -7 -22
-8 -49 -2 -59 -5 -53 -14 3 -5 0 -7 -8 -4 -8 3 -35 0 -58 -7 -24 -7 -48 -14
-54 -15 -75 -20 -131 -39 -133 -46 -2 -4 -7 -6 -12 -3 -20 13 -597 -213 -641
-251 -8 -8 -20 -14 -25 -14 -9 0 -27 -9 -149 -75 -560 -302 -1059 -719 -1453
-1215 -46 -58 -91 -113 -99 -124 -33 -40 -204 -296 -256 -382 -224 -371 -417
-823 -518 -1217 -11 -45 -23 -89 -25 -97 -42 -150 -104 -536 -122 -755 -15
-190 -7 -728 14 -890 35 -273 70 -462 125 -674 177 -681 492 -1289 958 -1851
101 -122 392 -419 500 -511 35 -30 69 -58 75 -64 79 -71 295 -232 441 -328
627 -412 1316 -661 2080 -751 178 -21 689 -29 885 -14 611 49 1198 211 1740
483 156 78 182 92 308 166 135 80 432 283 488 334 6 5 29 24 50 40 220 171
569 519 722 720 25 33 49 62 53 65 30 22 344 488 351 521 2 8 8 18 15 24 39
33 309 606 298 633 -2 7 -1 11 4 8 4 -3 14 14 21 37 6 23 16 47 20 52 4 6 16
35 26 65 23 70 26 80 28 107 0 11 4 19 7 17 6 -3 22 49 53 161 1 6 8 29 15 53
6 23 9 47 6 52 -3 6 -2 10 3 10 9 0 23 51 27 96 1 11 4 24 7 30 3 5 9 27 13
49 5 22 9 42 10 45 1 3 5 25 9 50 5 25 10 54 12 65 11 58 17 104 18 135 1 19
4 37 7 40 9 7 24 150 24 227 0 33 3 59 7 57 9 -6 2 805 -7 851 -3 17 -8 53
-10 80 -10 101 -17 140 -28 147 -9 6 -9 8 -1 8 7 0 9 10 6 25 -2 14 -8 23 -12
20 -4 -2 -5 6 -3 18 4 22 -43 273 -55 292 -4 6 -5 18 -3 29 2 12 -1 16 -10 11
-8 -5 -10 -4 -5 4 9 14 -25 152 -36 145 -4 -3 -5 2 -2 10 3 8 -4 43 -15 78
-12 35 -26 79 -32 98 -27 87 -109 307 -144 385 -7 17 -23 53 -35 80 -51 117
-185 374 -256 492 -144 239 -271 418 -440 618 -125 148 -131 155 -247 274
-372 380 -795 690 -1254 920 -144 72 -194 96 -290 137 -18 8 -48 20 -65 28
-146 62 -503 177 -658 212 -11 2 -30 6 -42 10 -60 14 -75 17 -100 18 -16 0
-28 4 -28 8 0 5 -3 7 -7 7 -5 -1 -10 0 -13 1 -19 7 -131 23 -172 24 -20 1 -34
4 -32 7 4 7 -13 9 -93 12 -28 1 -49 5 -47 8 2 3 -13 6 -33 7 -20 1 -38 4 -41
7 -3 3 -12 -1 -20 -8 -11 -8 -13 -8 -9 0 9 14 -89 22 -105 8 -7 -7 -9 -6 -5 1
5 8 -93 12 -363 12 -281 0 -369 -2 -363 -11 5 -9 3 -9 -8 -1 -9 6 -37 7 -79 2z"/>
</g>
</svg>
