<svg version="1.1" viewBox="0.0 0.0 944.8818897637796 944.8818897637796" fill="none" stroke="none" stroke-linecap="square" stroke-miterlimit="10" xmlns:xlink="http://www.w3.org/1999/xlink" xmlns="http://www.w3.org/2000/svg"><clipPath id="g25c6994d896_0_5.0"><path d="m0 0l944.8819 0l0 944.8819l-944.8819 0l0 -944.8819z" clip-rule="nonzero"/></clipPath><g clip-path="url(#g25c6994d896_0_5.0)"><path fill="#000000" fill-opacity="0.0" d="m0 0l944.8819 0l0 944.8819l-944.8819 0z" fill-rule="evenodd"/><path fill="#000000" d="m0.010498688 472.43045l0 0c0 -260.92194 211.51901 -472.44095 472.44095 -472.44095l0 0c125.2991 0 245.46634 49.774883 334.0662 138.37476c88.59985 88.59985 138.37476 208.76706 138.37476 334.0662l0 0c0 260.9219 -211.51904 472.44095 -472.44095 472.44095l0 0c-260.92194 0 -472.44095 -211.51904 -472.44095 -472.44095z" fill-rule="evenodd"/><path stroke="#274e13" stroke-width="1.0" stroke-linejoin="round" stroke-linecap="butt" d="m0.010498688 472.43045l0 0c0 -260.92194 211.51901 -472.44095 472.44095 -472.44095l0 0c125.2991 0 245.46634 49.774883 334.0662 138.37476c88.59985 88.59985 138.37476 208.76706 138.37476 334.0662l0 0c0 260.9219 -211.51904 472.44095 -472.44095 472.44095l0 0c-260.92194 0 -472.44095 -211.51904 -472.44095 -472.44095z" fill-rule="evenodd"/><path fill="#000000" fill-opacity="0.0" d="m301.14435 220.34645l342.6142 0l0 504.18903l-342.6142 0z" fill-rule="evenodd"/><path fill="#ffffff" d="m390.14435 613.34644q-16.0 0 -29.0 -7.796875q-13.0 -7.796875 -20.796875 -20.796875q-7.796875 -13.0 -7.796875 -29.0l0 -172.81247q0 -16.0 7.796875 -29.0q7.796875 -13.0 20.796875 -20.796875q13.0 -7.796875 29.0 -7.796875l229.59375 0l0 58.0l-216.0 0q-6.390625 0 -10.0 3.40625q-3.59375 3.390625 -3.59375 10.1875l0 144.81247q0 6.390625 3.59375 10.0q3.609375 3.59375 10.0 3.59375l216.0 0l0 58.0l-229.59375 0z" fill-rule="nonzero"/></g></svg>