<?xml version="1.0" standalone="no"?>
<!DOCTYPE svg PUBLIC "-//W3C//DTD SVG 20010904//EN"
 "http://www.w3.org/TR/2001/REC-SVG-20010904/DTD/svg10.dtd">
<svg version="1.0" xmlns="http://www.w3.org/2000/svg"
 width="180.000000pt" height="180.000000pt" viewBox="0 0 180.000000 180.000000"
 preserveAspectRatio="xMidYMid meet">

<g transform="translate(0.000000,180.000000) scale(0.100000,-0.100000)"
fill="#000000" stroke="none">
<path d="M940 1589 c-208 -23 -365 -160 -416 -361 -39 -152 26 -294 162 -354
38 -17 82 -26 149 -30 53 -4 98 -11 101 -15 3 -5 16 -9 30 -9 30 0 71 -38 80
-74 14 -58 -40 -117 -124 -137 -23 -6 -123 -3 -270 8 -283 19 -261 29 -302
-138 -29 -117 -27 -142 7 -153 48 -15 432 -35 503 -26 235 30 408 180 460 399
17 71 8 186 -20 248 -53 119 -152 172 -355 188 -52 4 -86 12 -97 22 -22 20
-23 61 -3 90 29 41 77 45 302 28 l207 -15 24 23 c15 16 31 55 47 118 29 113
31 145 8 158 -10 5 -99 14 -198 20 -99 7 -191 13 -205 15 -14 1 -54 -1 -90 -5z
m293 -50 c193 -14 180 -3 145 -130 -25 -93 5 -85 -265 -67 -210 14 -243 8
-292 -47 -52 -60 -53 -114 -3 -165 25 -24 37 -28 142 -37 138 -13 203 -37 258
-97 58 -63 75 -118 70 -220 -4 -70 -10 -96 -38 -153 -63 -127 -191 -226 -332
-255 -46 -10 -105 -9 -293 3 -129 9 -238 19 -241 22 -10 9 37 188 50 193 7 3
106 -2 222 -10 264 -18 320 -10 385 61 38 40 49 66 49 113 0 90 -66 134 -220
145 -128 10 -188 33 -244 96 -57 63 -75 130 -58 218 28 152 135 275 279 321
70 23 157 25 386 9z"/>
<path d="M1325 1468 c-21 -47 -68 -60 -197 -54 -177 8 -285 -19 -326 -82 -14
-21 -10 -20 44 9 l59 31 135 -6 c74 -3 171 -9 216 -12 92 -8 88 -11 99 79 6
45 4 57 -6 57 -8 0 -19 -10 -24 -22z"/>
<path d="M666 1379 c-36 -42 -53 -77 -61 -124 -10 -54 7 -37 35 35 12 30 30
70 40 88 24 40 19 41 -14 1z"/>
<path d="M1056 519 c-127 -66 -205 -83 -351 -74 -186 10 -231 28 -223 88 2 16
-3 23 -18 25 -17 2 -23 -6 -37 -57 -25 -90 -26 -88 51 -95 252 -22 373 -27
428 -17 79 15 171 60 222 108 38 37 55 73 33 73 -5 0 -52 -23 -105 -51z"/>
</g>
</svg>
