<?xml version="1.0" standalone="no"?>
<!DOCTYPE svg PUBLIC "-//W3C//DTD SVG 20010904//EN"
 "http://www.w3.org/TR/2001/REC-SVG-20010904/DTD/svg10.dtd">
<svg version="1.0" xmlns="http://www.w3.org/2000/svg"
 width="180.000000pt" height="180.000000pt" viewBox="0 0 180.000000 180.000000"
 preserveAspectRatio="xMidYMid meet">

<g transform="translate(0.000000,180.000000) scale(0.100000,-0.100000)"
fill="#000000" stroke="none">
<path d="M1285 1228 c-348 -20 -385 -26 -385 -63 0 -19 -10 -19 -36 -1 -45 32
-94 35 -319 22 -204 -11 -225 -14 -280 -40 -69 -31 -109 -66 -135 -116 -10
-19 -30 -109 -45 -199 -31 -186 -28 -220 26 -265 53 -45 93 -50 325 -37 233
12 290 24 356 74 57 43 83 93 98 184 10 64 10 77 -4 91 -13 16 -12 19 9 40 13
13 25 35 27 50 3 27 4 27 93 33 50 3 93 3 96 0 3 -3 -8 -96 -26 -206 -18 -110
-30 -206 -27 -214 4 -11 32 -13 151 -8 157 6 176 10 186 35 4 9 22 103 40 209
18 106 36 196 39 201 3 5 51 12 107 15 125 7 133 13 150 114 15 90 7 104 -60
102 -25 -1 -199 -10 -386 -21z m-715 -294 c5 -37 7 -39 45 -45 38 -6 38 -6 8
-8 -42 -1 -68 -28 -78 -77 -4 -21 -12 -42 -18 -46 -17 -11 -95 -10 -101 1 -3
4 1 44 9 87 24 131 20 122 68 127 61 5 61 4 67 -39z"/>
</g>
</svg>
