<?xml version="1.0" standalone="no"?>
<!DOCTYPE svg PUBLIC "-//W3C//DTD SVG 1.0//EN" "http://www.w3.org/TR/2001/REC-SVG-20010904/DTD/svg10.dtd">
<svg xmlns="http://www.w3.org/2000/svg" xmlns:xlink="http://www.w3.org/1999/xlink" id="body_1" width="159" height="110">

<g transform="matrix(1 0 0 1 0 0)">
    <path d="M154 17.5C 152.18 10.77 146.93 5.5 140.2 3.6999998C 131.16 0.2099998 43.6 -1.5 18.199997 3.7999997C 11.469997 5.62 6.199997 10.87 4.3999968 17.6C 0.31999683 35.5 0.009996891 74.2 4.4999967 92.5C 6.319997 99.23 11.569997 104.5 18.299997 106.3C 36.199997 110.420006 121.299995 111 140.3 106.3C 147.03 104.48 152.3 99.23 154.1 92.5C 158.45001 73 158.76001 36.7 154 17.5z" stroke="none" fill="#FF0000" fill-rule="nonzero" />
    <path d="M105 55L64.2 31.6L64.2 78.4L105 55z" stroke="none" fill="#FFFFFF" fill-rule="nonzero" />
</g>
</svg>