<!--?xml version="1.0" encoding="utf-8"?-->
<!-- Generator: Adobe Illustrator 18.1.1, SVG Export Plug-In . SVG Version: 6.00 Build 0)  -->

<svg version="1.1" id="_x31_0" xmlns="http://www.w3.org/2000/svg" xmlns:xlink="http://www.w3.org/1999/xlink" x="0px" y="0px" viewBox="0 0 512 512" style="width: 256px; height: 256px; opacity: 1;" xml:space="preserve">
<style type="text/css">
	.st0{fill:#374149;}
</style>
<g>
	<path class="st0" d="M355.532,427.519H183.848l-27.218-0.023c0,0.008,0.004,0.016,0.004,0.023h-0.164
		c3.453,21.122,13.468,40.016,27.859,54.559c0.102,0.102,0.214,0.191,0.316,0.293C202.903,500.664,228.117,512,256,512
		c21.621,0,41.636-6.828,58.058-18.414c0.137-0.098,0.281-0.179,0.418-0.277c1.226-0.875,2.387-1.836,3.57-2.766
		c1.176-0.914,2.379-1.793,3.508-2.758c0.285-0.242,0.543-0.511,0.824-0.758c17.078-14.89,29.164-35.515,33.153-59.344h-0.035
		C355.504,427.629,355.52,427.574,355.532,427.519z" style="fill: rgb(245, 223, 53);"></path>
	<path class="st0" d="M496.254,324.574c-33.746-23.422-55.778-62.371-55.778-106.508v-29.481c0-17.972-2.606-35.434-7.371-52.042
		C416.578,77.886,372.887,30.898,316.883,10.789C297.789,3.84,277.289,0,255.922,0h-3.488
		C152.203,1.863,71.524,83.703,71.524,184.477v33.59c0,44.137-22.106,83.086-55.774,106.508
		c-9.313,6.519-14.664,17.305-14.664,28.703c0,9.773,3.957,18.617,10.394,25.058c6.363,6.442,15.207,10.398,25.058,10.398h121.094
		h196.734h121.094c19.629,0,35.453-15.906,35.453-35.457C510.914,341.879,505.563,331.094,496.254,324.574z M181.914,104.414
		c12.414-11.168,27.465-16.906,41.195-16.906c11.559,0,22.11,3.953,29.555,12.175c16.293,17.997,11.015,49.336-11.715,69.899
		c-12.41,11.246-27.382,16.984-41.191,16.984c-11.481,0-22.031-4.031-29.481-12.176C153.91,156.394,159.188,125.05,181.914,104.414z
		" style="fill: rgb(245, 223, 53);"></path>
</g>
</svg>
